<?xml version="1.0" standalone="no"?>
<!DOCTYPE svg PUBLIC "-//W3C//DTD SVG 20010904//EN"
 "http://www.w3.org/TR/2001/REC-SVG-20010904/DTD/svg10.dtd">
<svg version="1.0" xmlns="http://www.w3.org/2000/svg"
 width="512.000000pt" height="512.000000pt" viewBox="0 0 512.000000 512.000000"
 preserveAspectRatio="xMidYMid meet">
<metadata>
Created by potrace 1.16, written by Peter Selinger 2001-2019
</metadata>
<g transform="translate(0.000000,512.000000) scale(0.100000,-0.100000)"
fill="#000000" stroke="none">
<path d="M1825 4401 c-38 -10 -95 -40 -76 -41 10 0 7 -9 -11 -27 -78 -84 -94
-218 -37 -328 25 -48 64 -92 100 -111 l27 -13 -29 -93 c-16 -51 -38 -131 -50
-176 -16 -63 -32 -98 -65 -140 -37 -50 -40 -57 -23 -60 22 -4 24 -13 7 -31
-10 -10 -10 -15 -2 -18 8 -3 9 -16 2 -45 -5 -22 -7 -46 -5 -52 2 -6 -28 -28
-67 -49 -78 -42 -72 -43 17 -3 l57 26 0 -36 c0 -24 4 -34 12 -32 7 3 22 -18
35 -50 12 -31 28 -59 35 -63 16 -10 -18 -83 -65 -143 -21 -27 -27 -41 -19 -44
9 -3 5 -14 -13 -38 -39 -51 -100 -185 -88 -192 6 -4 12 -50 15 -102 4 -89 7
-100 44 -163 22 -38 40 -62 42 -53 2 11 12 5 34 -20 30 -34 31 -37 25 -109 -6
-88 -37 -163 -92 -224 -26 -29 -33 -41 -21 -41 20 0 20 -5 0 -35 -14 -21 -14
-25 -2 -25 8 0 25 11 38 25 13 14 28 25 33 25 6 0 1 -10 -10 -23 -22 -23 -72
-117 -78 -146 -19 -88 -19 -84 3 -72 20 10 20 9 11 -21 -11 -41 -12 -138 0
-120 5 8 10 -17 14 -64 6 -77 26 -128 28 -68 0 25 5 20 30 -35 16 -35 49 -92
74 -126 43 -60 178 -195 196 -195 5 0 9 -4 9 -9 0 -5 -17 -12 -37 -16 -48 -9
-109 -71 -119 -120 -17 -93 26 -120 181 -113 173 8 243 49 260 152 3 22 23 79
43 126 l37 85 120 0 c66 0 153 6 194 14 69 12 75 12 100 -6 31 -23 129 -176
137 -213 14 -68 20 -73 174 -112 176 -46 249 -54 310 -36 53 16 73 47 64 98
-13 80 -59 119 -165 141 -87 18 -85 17 -57 47 70 76 141 213 162 313 9 41 18
63 26 61 10 -2 11 21 7 105 -3 59 -9 119 -13 132 -6 21 -5 23 15 18 33 -8 36
15 7 61 -14 22 -28 51 -31 64 -7 28 16 123 42 169 28 53 25 221 -6 317 -13 41
-34 89 -47 108 -13 19 -19 34 -13 34 23 0 -4 57 -61 133 -49 63 -56 77 -40 77
23 0 26 15 7 27 -26 16 -107 128 -107 149 0 11 -12 31 -26 45 -28 25 -84 116
-84 135 0 17 63 119 75 121 6 1 14 18 19 38 l8 36 64 -35 c35 -20 64 -34 64
-31 0 2 -27 21 -61 41 -50 31 -59 41 -55 59 3 12 1 46 -3 76 -5 30 -8 55 -7
56 0 0 19 -5 41 -12 21 -8 41 -12 43 -10 2 2 -19 12 -47 21 -29 11 -45 21 -38
26 8 5 6 13 -7 27 -19 21 -19 21 4 21 21 0 21 1 -10 33 -41 41 -73 104 -117
230 -19 56 -41 114 -49 129 -12 24 -12 28 -1 28 24 0 96 54 125 95 43 59 66
137 59 205 -5 58 -33 126 -61 149 -9 7 -14 17 -11 21 10 17 -64 40 -127 40
-83 -1 -123 -20 -226 -109 l-83 -72 -67 5 c-77 6 -184 20 -226 31 -26 7 -27 6
-18 -12 10 -18 7 -19 -80 -17 l-91 2 -66 66 c-89 88 -185 127 -266 107z m150
-55 c47 -24 168 -136 193 -181 11 -19 11 -19 12 3 0 16 6 22 23 23 12 0 50 2
85 4 35 2 75 0 88 -6 17 -6 23 -6 19 1 -8 13 1 13 28 -2 20 -10 21 -10 8 5
-16 20 -8 22 21 6 15 -8 19 -8 14 0 -10 15 3 14 54 -4 23 -8 47 -12 52 -9 6 4
14 1 18 -5 5 -9 17 -7 46 9 21 12 45 27 52 33 10 8 11 5 3 -16 -16 -42 5 -92
65 -155 59 -60 63 -54 9 13 -70 88 -74 130 -16 203 54 68 124 102 210 102 58
0 63 -2 46 -14 -18 -13 -17 -14 12 -20 32 -7 62 -34 82 -74 18 -35 17 -151 -3
-197 -24 -57 -43 -74 -103 -91 -64 -19 -69 -29 -10 -21 l42 5 -40 -19 c-54
-25 -64 -24 -103 14 l-34 32 34 -66 c18 -36 36 -64 40 -62 3 1 4 -5 1 -16 -3
-10 0 -22 6 -25 7 -4 8 -1 5 8 -3 9 -4 16 -1 16 5 0 31 -64 72 -184 15 -43 44
-99 63 -124 l35 -46 -42 33 c-22 18 -41 28 -41 23 0 -6 12 -20 28 -31 19 -15
21 -19 7 -14 -19 6 -19 5 -4 -13 20 -25 72 -144 66 -151 -3 -3 -15 13 -27 36
-11 23 -23 41 -26 41 -2 0 0 -8 5 -19 6 -10 8 -21 5 -24 -3 -3 1 -18 9 -34 19
-38 32 -84 18 -63 -8 12 -11 7 -12 -20 l-1 -35 -11 35 -11 35 -6 -60 c-5 -55
-25 -113 -36 -102 -3 2 0 17 6 32 18 47 5 38 -20 -14 -12 -27 -41 -67 -63 -88
-37 -34 -38 -35 -20 -8 38 57 37 60 -8 22 -39 -33 -74 -56 -185 -122 l-29 -17
30 23 c16 13 41 35 55 48 l25 23 -35 -21 c-51 -32 -150 -82 -150 -77 0 3 10
22 22 43 l22 38 -30 -26 c-16 -15 -49 -40 -73 -57 l-44 -29 -35 23 c-43 29
-73 30 -128 3 l-42 -20 -56 31 c-31 18 -56 27 -56 21 0 -5 20 -22 45 -37 25
-14 45 -28 45 -30 0 -8 -85 38 -133 72 -63 45 -70 43 -22 -7 l40 -41 -40 17
c-22 9 -47 20 -55 23 -8 3 -23 13 -32 21 -9 9 -32 25 -50 35 l-33 19 25 -28
25 -29 -31 22 c-17 12 -54 42 -82 67 -54 49 -68 48 -30 0 l22 -28 -25 16 c-34
23 -71 75 -63 89 4 6 3 8 -3 5 -15 -9 -33 38 -33 86 -1 39 -2 41 -15 23 -14
-18 -15 -18 -15 -2 0 9 7 30 15 46 13 25 13 30 1 30 -7 0 -21 -18 -30 -40 -9
-22 -18 -40 -21 -40 -8 0 5 50 26 98 20 47 12 56 -13 15 -10 -16 -18 -22 -18
-15 0 20 35 84 64 115 34 37 33 40 -11 22 -35 -15 -36 -15 -21 2 28 32 38 60
58 160 21 104 50 185 87 245 29 47 29 48 -2 48 -31 0 -91 30 -124 61 -98 92
-74 288 43 348 41 21 46 26 30 33 -12 5 3 6 35 3 30 -2 78 -16 106 -29z m1064
-1377 l23 -31 -23 7 -24 6 23 -20 c13 -11 36 -29 50 -40 l27 -20 -25 -1 -25
-1 25 -13 c14 -8 45 -42 69 -77 l44 -62 -57 32 c-31 18 -56 30 -56 26 0 -15
54 -76 64 -72 6 2 20 1 31 -4 19 -7 19 -8 1 -8 -15 -1 -7 -14 36 -58 30 -32
60 -69 67 -82 13 -23 13 -23 -10 -7 -40 28 -43 18 -6 -23 117 -129 162 -385
94 -534 -37 -80 -108 -119 -157 -87 -12 8 -11 11 9 16 38 11 104 49 109 63 3
8 -14 2 -40 -13 -50 -29 -108 -35 -108 -11 0 8 17 23 38 34 20 10 46 29 57 41
19 21 17 21 -29 -4 -27 -14 -57 -26 -67 -26 -27 0 -23 28 7 53 83 69 114 102
124 133 7 20 10 37 7 40 -8 9 -37 -8 -37 -22 0 -8 -7 -14 -15 -14 -19 0 -20
24 -1 39 7 6 25 12 40 13 24 2 26 5 20 33 -14 65 -71 171 -110 203 -32 26 -47
32 -87 32 -53 0 -55 3 -32 65 5 16 3 15 -14 -5 l-21 -25 0 43 c0 24 -4 41 -9
38 -5 -3 -12 5 -15 18 -3 14 -12 31 -20 39 -8 8 -29 43 -45 78 -17 35 -40 75
-52 89 l-20 25 14 -30 c111 -229 127 -274 126 -335 0 -32 -2 -30 -24 29 -34
91 -46 95 -22 6 l20 -76 -32 -29 c-41 -38 -61 -88 -60 -147 1 -26 -10 -104
-24 -172 -15 -69 -25 -126 -23 -129 2 -2 7 6 11 17 13 43 22 18 39 -116 33
-254 33 -287 -3 -372 -17 -41 -29 -76 -27 -78 2 -2 23 26 46 64 23 37 40 60
36 51 -4 -15 1 -18 26 -18 l31 0 -19 -22 -19 -22 30 21 c23 16 41 20 70 17 32
-4 36 -2 23 6 -16 10 -14 15 20 59 28 37 48 52 81 62 24 7 59 28 78 46 l34 34
14 -35 c9 -20 18 -64 20 -99 l5 -62 -15 40 c-24 61 -37 68 -30 15 4 -32 3 -39
-4 -25 -5 11 -10 15 -10 8 -1 -20 11 -43 19 -38 8 5 6 -59 -5 -143 -4 -37 -36
-125 -42 -119 -2 3 1 17 8 33 14 36 29 128 19 117 -4 -4 -13 -30 -19 -57 -29
-118 -150 -309 -215 -340 -49 -23 -54 -36 -9 -24 57 16 200 5 256 -20 26 -12
47 -24 47 -27 0 -3 -9 -1 -19 5 -34 17 -34 11 -2 -25 17 -20 31 -47 31 -60 0
-36 -7 -31 -31 20 -12 25 -30 50 -41 56 -10 5 -17 13 -14 17 2 4 -7 8 -20 8
-22 2 -21 0 11 -30 33 -32 55 -72 55 -102 0 -9 -11 -14 -29 -14 -25 0 -31 6
-41 35 -12 35 -61 85 -85 85 -7 0 5 -17 26 -39 22 -21 39 -48 39 -60 0 -25 -1
-25 -145 19 -49 15 -104 31 -121 34 l-31 7 1 67 c0 41 -9 103 -24 162 -27 108
-28 110 -40 90 -7 -10 -10 6 -11 50 -1 36 -4 52 -6 36 -4 -22 -7 -26 -14 -15
-7 11 -9 10 -9 -6 -1 -16 -4 -13 -15 10 l-13 30 -2 -30 c-4 -58 2 -90 22 -133
11 -24 22 -42 24 -40 1 2 -2 23 -7 47 -17 77 -3 54 23 -36 14 -49 29 -97 33
-108 17 -44 -15 4 -73 108 l-60 108 12 47 c15 56 41 108 90 181 46 68 46 88
-1 36 -32 -36 -34 -37 -20 -10 32 65 28 78 -8 25 -21 -30 -88 -104 -149 -164
-61 -60 -101 -104 -90 -98 32 17 113 79 158 121 l39 36 -31 -45 c-16 -25 -43
-57 -59 -72 -26 -25 -153 -102 -158 -96 -2 2 -18 28 -38 58 -49 76 -207 286
-207 274 0 -15 82 -142 154 -240 35 -49 61 -90 56 -92 -5 -2 -28 2 -51 8 -32
9 -61 30 -109 77 l-65 66 53 -37 c28 -20 52 -33 52 -28 0 4 -48 55 -106 112
-110 109 -220 260 -254 347 -25 64 -25 31 0 -42 11 -32 18 -60 17 -62 -6 -5
-74 185 -105 289 -14 48 -27 86 -29 85 -7 -8 20 -139 43 -207 24 -71 111 -251
99 -202 -11 40 3 23 18 -23 18 -53 82 -138 162 -215 56 -54 85 -97 85 -122 0
-7 -12 5 -25 27 l-25 40 -1 -55 c-1 -39 -3 -48 -8 -30 -6 22 -8 23 -14 6 -4
-10 -2 -24 3 -32 8 -9 7 -21 -4 -42 -8 -16 -22 -62 -30 -103 l-16 -74 4 70 c2
42 -2 84 -9 105 l-13 35 -1 -45 -1 -45 -30 60 c-32 63 -33 50 -6 -52 23 -84
37 -213 25 -234 -10 -20 -80 -49 -124 -52 -26 -2 -30 1 -27 22 1 14 10 33 19
43 15 17 15 18 0 18 -17 0 -47 -48 -47 -75 0 -10 -10 -15 -30 -15 -25 0 -30 4
-30 25 0 13 15 41 32 61 l33 37 -32 -16 c-22 -12 -37 -31 -49 -62 -14 -37 -21
-45 -38 -43 -44 6 -25 88 26 114 35 18 32 28 -7 18 -15 -4 -35 -21 -46 -38
-12 -19 -19 -25 -19 -14 0 27 56 66 113 78 46 9 62 8 117 -9 35 -11 66 -19 68
-17 2 2 -14 17 -35 32 -105 77 -132 100 -199 174 -42 47 -79 99 -88 123 -8 23
-22 62 -30 87 l-16 45 4 -45 c2 -25 7 -54 12 -64 5 -13 4 -17 -4 -13 -11 8
-34 65 -54 137 l-12 45 -6 -40 -6 -40 -17 54 c-9 30 -17 81 -17 113 0 40 -4
57 -12 56 -16 -4 -11 65 8 111 17 41 17 39 -3 43 -14 2 -12 8 11 33 34 36 79
105 73 111 -2 3 -16 0 -31 -5 -32 -13 -32 -10 0 39 32 48 28 59 -10 29 -24
-19 -23 -15 13 41 23 35 41 67 41 73 0 5 10 6 23 2 37 -11 105 -5 170 15 34
11 65 20 70 20 4 0 7 -21 7 -47 1 -105 53 -266 102 -310 13 -12 9 4 -16 58
-39 84 -63 171 -72 256 -6 56 -5 59 17 60 13 1 25 7 27 13 2 5 9 7 14 4 6 -4
8 -2 5 3 -10 16 20 36 44 30 12 -3 22 0 25 8 3 7 14 15 25 18 15 4 17 2 9 -13
-17 -33 -12 -69 14 -85 21 -14 28 -14 67 0 24 9 51 19 59 21 10 3 19 -5 27
-25 17 -46 61 -43 102 6 30 36 31 42 31 130 0 71 3 93 13 93 30 0 60 48 63
102 3 46 2 49 -6 23 -5 -17 -22 -43 -38 -58 l-29 -28 -6 136 c-5 134 -5 136
19 160 18 18 24 35 24 70 0 42 13 61 22 33 3 -8 15 -5 36 11 18 12 36 20 41
17 9 -6 145 60 239 114 30 18 60 29 67 26 7 -2 19 2 25 10 17 20 23 18 49 -17z
m-1116 -24 c111 -58 252 -115 285 -115 23 0 24 -3 19 -37 -4 -25 -3 -33 4 -26
13 13 49 5 49 -11 0 -14 -95 -56 -127 -56 -42 0 -75 24 -100 73 -25 50 -67 97
-86 97 -6 0 1 -13 16 -28 35 -37 35 -52 0 -21 -16 13 -10 4 12 -20 27 -29 33
-40 18 -32 -37 19 -107 13 -143 -11 -45 -31 -52 -52 -10 -32 41 21 117 22 160
2 l35 -17 -46 6 c-26 3 -55 1 -65 -6 -16 -9 -14 -10 17 -11 19 0 72 -9 117
-21 l81 -20 47 20 c83 37 161 23 218 -38 34 -35 30 -37 -38 -16 -27 8 -56 15
-65 15 -23 0 -1 -16 42 -30 41 -13 92 -51 108 -82 10 -18 9 -19 -18 -5 -34 18
-113 40 -120 34 -2 -3 23 -17 56 -32 56 -26 80 -48 62 -59 -4 -3 -36 4 -71 15
-83 26 -109 20 -48 -11 32 -16 44 -27 35 -32 -19 -12 -88 -9 -139 6 -46 14
-47 14 -124 -24 -42 -22 -80 -38 -83 -36 -3 1 -17 -8 -30 -21 -40 -39 -4 -26
96 32 52 30 97 55 100 55 12 0 -33 -43 -71 -67 -92 -59 -219 -73 -301 -33 -58
28 -122 99 -130 144 -8 40 -25 39 -25 -2 -1 -24 -2 -25 -11 -8 -7 11 -10 56
-7 115 4 104 15 137 93 265 27 45 33 61 23 68 -10 6 -10 10 2 18 21 14 30 12
30 -5 0 -9 6 -12 15 -9 8 4 13 10 10 14 -6 10 4 40 14 40 4 0 46 -20 94 -45z
m652 -55 c-10 -11 -22 -20 -28 -20 -5 0 1 9 14 20 31 25 37 25 14 0z m-95 -5
c50 -26 75 -99 50 -146 -6 -10 -15 -19 -21 -19 -6 0 -6 7 1 19 54 101 -88 202
-157 112 -7 -9 -13 -37 -13 -63 0 -27 -4 -48 -10 -48 -5 0 -10 21 -10 46 0 39
5 51 34 80 38 38 77 44 126 19z m-20 -65 c21 -21 27 -60 9 -60 -8 0 -9 -17 -4
-57 6 -52 5 -56 -9 -44 -11 9 -16 30 -16 63 0 41 -3 49 -17 46 -9 -2 -20 -14
-24 -28 -7 -27 -12 -19 -23 33 -14 59 41 90 84 47z m-180 -11 c0 -18 -2 -19
-15 -5 -8 8 -15 17 -15 20 0 3 7 6 15 6 9 0 15 -9 15 -21z m210 -239 c0 -5 -4
-10 -10 -10 -5 0 -10 5 -10 10 0 6 5 10 10 10 6 0 10 -4 10 -10z m711 -113
c26 -17 39 -37 56 -87 24 -69 30 -125 13 -115 -5 3 -10 16 -10 29 0 42 -21 86
-40 86 -11 0 -22 5 -25 11 -12 19 -55 30 -76 19 -23 -13 -24 -41 -4 -80 9 -17
24 -72 35 -122 18 -90 18 -94 1 -111 -18 -18 -19 -15 -36 80 -9 54 -24 113
-31 132 -28 68 -12 111 47 126 19 5 34 0 57 -20 17 -14 33 -21 36 -16 11 17
-5 39 -40 56 -28 13 -41 14 -69 5 -63 -21 -85 -78 -55 -143 11 -23 38 -139 61
-257 51 -272 47 -259 74 -276 27 -17 49 -11 63 19 l11 22 0 -22 c1 -34 -39
-57 -72 -42 -34 15 -38 29 -87 289 -24 130 -49 231 -62 256 -26 50 -20 105 14
142 44 47 88 53 139 19z m-711 -148 c0 -68 -3 -88 -15 -93 -13 -4 -15 9 -15
83 0 49 3 97 6 106 13 34 24 -9 24 -96z m-60 -16 c0 -55 -7 -83 -21 -83 -10 0
-12 143 -2 153 13 13 23 -18 23 -70z m749 -21 c18 -70 23 -129 12 -136 -14 -9
-16 -3 -40 106 -18 85 -18 87 0 78 10 -6 23 -27 28 -48z m-829 -7 c0 -41 -2
-45 -24 -45 -29 0 -32 4 -41 53 l-7 37 36 0 36 0 0 -45z m588 -125 c-1 -49 -6
-90 -10 -90 -10 0 -10 56 -2 128 10 80 16 62 12 -38z m52 -162 c0 -5 -4 -8
-10 -8 -5 0 -10 10 -10 23 0 18 2 19 10 7 5 -8 10 -18 10 -22z m-20 -148 c-7
-53 -7 -52 -8 25 0 49 3 70 7 55 4 -14 4 -50 1 -80z m357 54 c-40 -34 -54 -30
-15 5 18 16 35 27 38 24 3 -2 -8 -16 -23 -29z m-107 -67 c30 -13 31 -15 15
-31 -16 -16 -18 -16 -36 0 -11 9 -19 23 -19 31 0 16 0 16 40 0z m144 -28 l27
-40 -28 3 c-24 3 -28 8 -31 41 -2 20 -1 37 1 37 2 0 16 -18 31 -41z m-387 -81
c-3 -8 -6 -5 -6 6 -1 11 2 17 5 13 3 -3 4 -12 1 -19z m420 -810 c-3 -8 -6 -5
-6 6 -1 11 2 17 5 13 3 -3 4 -12 1 -19z m-1550 -20 c-3 -8 -6 -5 -6 6 -1 11 2
17 5 13 3 -3 4 -12 1 -19z"/>
<path d="M1880 4356 c0 -2 16 -14 36 -26 19 -12 53 -47 76 -76 22 -30 43 -52
45 -50 11 11 -46 93 -85 123 -38 29 -72 42 -72 29z"/>
<path d="M2920 4321 c-35 -18 -100 -93 -100 -114 0 -6 21 12 46 41 25 29 62
61 83 72 20 10 29 19 21 20 -8 0 -31 -8 -50 -19z"/>
<path d="M1855 4293 c-65 -5 -81 -18 -60 -49 8 -12 14 -40 14 -61 -1 -99 5
-124 39 -154 25 -23 42 -29 75 -29 l42 1 -29 25 -29 26 49 -7 49 -6 -40 36
c-22 21 -32 34 -22 31 9 -3 25 -9 35 -13 10 -3 3 9 -17 30 -41 44 -35 57 13
29 l35 -21 -11 27 c-7 15 -21 38 -32 52 -19 22 -19 23 -2 10 18 -14 19 -14 8
7 -7 12 -21 28 -32 36 -11 8 -17 17 -13 21 4 4 -1 4 -11 0 -14 -5 -17 -4 -12
4 4 7 6 11 4 10 -2 -1 -25 -3 -53 -5z"/>
<path d="M2887 4255 c-56 -61 -82 -99 -64 -92 47 19 52 18 27 -5 -14 -13 -32
-32 -40 -42 -13 -17 -13 -19 0 -14 8 3 26 8 40 12 23 7 22 4 -10 -23 l-35 -30
45 -1 45 -1 -27 -20 c-36 -26 -35 -39 1 -39 34 0 76 31 96 70 19 36 19 40 0
40 -12 0 -13 4 -5 19 5 11 10 30 10 43 0 38 23 78 45 78 20 1 20 1 1 15 -11 8
-39 15 -63 15 -34 0 -49 -6 -66 -25z"/>
<path d="M1729 4212 c-7 -26 -9 -54 -3 -79 7 -36 8 -34 15 37 3 41 5 77 3 78
-1 2 -8 -14 -15 -36z"/>
<path d="M3080 4193 c0 -28 -3 -59 -7 -69 -4 -11 -3 -15 5 -10 16 10 26 91 13
113 -8 14 -10 8 -11 -34z"/>
<path d="M2118 4138 c-12 -18 -44 -56 -70 -85 -45 -50 -90 -118 -55 -83 38 37
157 182 157 191 0 16 -8 10 -32 -23z"/>
<path d="M2419 4035 c14 -30 27 -48 29 -40 4 15 -37 95 -48 95 -3 0 5 -25 19
-55z"/>
<path d="M1740 4048 c0 -21 44 -66 75 -78 51 -19 60 -9 13 15 -25 14 -56 36
-67 51 -13 17 -21 21 -21 12z"/>
<path d="M3019 4023 c-26 -28 -28 -33 -10 -22 22 14 60 59 49 59 -2 0 -20 -17
-39 -37z"/>
<path d="M1948 3953 c-26 -29 -56 -96 -63 -138 -5 -33 3 -23 40 54 45 95 51
116 23 84z"/>
<path d="M2135 3822 c-25 -6 -65 -32 -65 -43 0 -5 12 -4 26 1 37 15 91 12 124
-5 35 -18 39 -7 8 22 -25 22 -62 33 -93 25z"/>
<path d="M2664 3820 c-21 -8 -54 -46 -54 -63 0 -4 13 2 29 14 29 22 78 23 126
4 17 -7 16 -4 -5 17 -29 29 -66 40 -96 28z"/>
<path d="M2113 3708 c-12 -13 -29 -42 -39 -65 -16 -36 -23 -42 -58 -48 -23 -3
-54 -12 -71 -20 -28 -13 -26 -14 35 -8 56 4 71 2 100 -16 38 -23 74 -26 116
-11 15 6 29 8 32 5 3 -3 -5 -38 -18 -79 l-23 -73 -151 2 -151 3 120 -7 c135
-9 175 -17 175 -37 0 -11 -18 -14 -72 -15 -40 0 -95 -4 -123 -9 -35 -6 -20 -7
51 -3 157 8 195 -14 72 -41 -40 -9 -91 -26 -113 -37 -22 -10 -31 -16 -20 -13
209 68 279 53 112 -24 -51 -24 -106 -54 -122 -68 -21 -17 -4 -11 55 20 47 25
104 52 128 60 l43 15 10 -27 c67 -179 138 -252 241 -252 52 0 62 4 97 35 21
19 44 50 52 68 7 17 30 51 50 74 21 23 41 53 45 67 3 14 13 26 20 26 16 0 133
-59 174 -87 l25 -17 -19 22 c-10 12 -56 41 -102 64 -80 41 -101 58 -70 58 8 0
51 -13 96 -29 106 -37 89 -20 -21 22 -74 28 -84 35 -87 59 l-3 27 68 -5 c37
-3 84 -7 103 -9 24 -3 30 -2 20 5 -8 5 -54 12 -102 16 -49 4 -91 10 -94 15
-10 17 86 33 201 33 95 0 111 2 75 9 -25 4 -85 5 -135 2 -49 -4 -103 -7 -118
-8 -25 -2 -31 4 -47 43 -9 25 -22 57 -28 71 l-10 25 47 -10 c42 -8 53 -6 107
19 53 26 57 29 34 35 -18 4 -33 22 -53 64 -31 62 -60 82 -101 72 -59 -15 -73
-123 -31 -247 14 -40 23 -79 21 -86 -3 -7 -2 -15 3 -17 4 -3 9 -30 10 -61 1
-38 -1 -55 -8 -50 -6 3 -11 2 -11 -4 0 -5 5 -11 12 -13 6 -2 8 -10 4 -16 -4
-8 -16 -10 -27 -7 -18 6 -19 5 -7 -15 12 -19 10 -24 -15 -46 -37 -32 -69 -39
-104 -22 -19 9 -29 22 -31 40 -3 24 1 28 37 38 104 28 124 156 31 202 -38 20
-114 24 -154 8 -97 -37 -86 -165 17 -205 47 -18 51 -30 20 -66 -35 -42 -130
-24 -178 33 -29 35 -32 55 -7 61 13 4 11 5 -5 6 -25 1 -33 34 -12 47 8 5 7 10
-4 16 -19 10 -11 38 11 38 14 0 14 2 -1 13 -16 11 -16 17 4 87 28 100 23 209
-11 245 -31 33 -88 34 -117 3z m96 -41 c13 -16 5 -27 -20 -27 -21 0 -33 15
-24 30 9 14 31 12 44 -3z m501 -13 c0 -8 -8 -14 -18 -14 -25 0 -34 11 -21 26
13 15 39 7 39 -12z m-611 -88 c15 -18 15 -18 -6 -7 -28 14 -36 28 -27 43 6 9
9 8 12 -2 3 -8 12 -24 21 -34z m676 4 c-27 -30 -36 -24 -18 11 11 22 18 28 26
20 7 -7 5 -16 -8 -31z m-223 -195 c-7 -27 -121 -24 -130 3 -3 10 13 12 65 10
39 -2 67 -7 65 -13z m-189 -314 c23 -21 38 -26 82 -26 48 0 58 4 91 35 l36 35
-16 -32 c-21 -41 -62 -63 -119 -63 -49 0 -82 20 -119 73 -20 28 -20 30 -3 18
11 -8 33 -26 48 -40z m85 12 c22 1 47 8 54 15 20 20 33 14 14 -7 -35 -39 -123
-33 -133 9 -3 12 -1 11 9 -2 10 -11 27 -16 56 -15z"/>
<path d="M1819 3524 c-22 -25 -22 -26 -3 -16 12 6 24 18 28 27 8 21 3 19 -25
-11z"/>
<path d="M2572 2750 c0 -19 3 -44 8 -55 8 -18 9 -18 8 5 0 14 -4 39 -8 55 l-8
30 0 -35z"/>
<path d="M2788 2402 c20 -45 38 -78 40 -73 4 13 -39 108 -62 136 -8 11 1 -17
22 -63z"/>
<path d="M2796 2230 c7 -85 -11 -222 -41 -318 -16 -51 -19 -70 -9 -57 46 62
80 306 55 400 -9 36 -10 34 -5 -25z"/>
<path d="M2181 2124 c0 -11 3 -14 6 -6 3 7 2 16 -1 19 -3 4 -6 -2 -5 -13z"/>
<path d="M2195 2065 c6 -44 64 -167 95 -204 34 -40 30 -20 -8 44 -19 33 -48
92 -64 130 -25 60 -28 64 -23 30z"/>
<path d="M1748 1853 c7 -3 16 -2 19 1 4 3 -2 6 -13 5 -11 0 -14 -3 -6 -6z"/>
<path d="M1731 1775 c-17 -20 -31 -39 -31 -43 1 -4 9 3 20 16 10 13 29 32 42
42 13 11 18 19 12 20 -7 0 -26 -16 -43 -35z"/>
<path d="M2801 1728 c-2 -30 -77 -166 -132 -236 -46 -60 -48 -63 -14 -32 70
65 166 236 152 272 -4 9 -6 8 -6 -4z"/>
<path d="M1800 1589 c0 -41 5 -81 10 -89 6 -10 7 14 3 70 -3 47 -7 87 -9 89
-2 2 -4 -29 -4 -70z"/>
<path d="M1979 1638 c16 -44 72 -150 77 -145 6 6 -49 127 -70 152 -16 19 -16
19 -7 -7z"/>
<path d="M1823 1372 c7 -59 44 -136 81 -172 25 -23 24 -19 -14 62 -22 48 -43
100 -46 117 -11 55 -28 49 -21 -7z"/>
<path d="M3168 1302 c-10 -26 -36 -77 -59 -112 -34 -54 -37 -61 -14 -40 31 28
79 119 90 168 10 46 2 40 -17 -16z"/>
<path d="M2221 1265 c-1 -5 5 -32 13 -60 11 -42 14 -46 20 -28 5 14 0 35 -13
60 -11 21 -20 34 -20 28z"/>
<path d="M1755 2819 c-32 -29 -65 -76 -65 -95 0 -4 10 6 22 22 12 16 37 46 57
67 43 45 35 49 -14 6z"/>
<path d="M1735 2630 c-30 -59 -33 -129 -7 -157 9 -10 14 -14 11 -8 -23 39 -18
101 15 178 24 54 11 46 -19 -13z"/>
<path d="M1784 2402 c13 -22 84 -52 121 -52 29 0 95 23 95 33 0 1 -26 1 -59
-1 -54 -3 -96 4 -145 24 -14 5 -17 4 -12 -4z"/>
</g>
</svg>