<svg xmlns="http://www.w3.org/2000/svg" width="512" height="512" viewBox="0 0 512 512" version="1.1">
	<path d="M 218.017 47.773 C 210.394 52.239, 199.666 62.521, 194.481 70.331 C 192.411 73.449, 190.400 76, 190.013 76 C 188.716 76, 185.894 72.243, 185.778 70.362 C 185.716 69.338, 186.482 64.330, 187.482 59.233 C 190.603 43.323, 188.833 45.029, 176.573 69.750 C 171.582 79.813, 167.434 87, 166.616 87 C 165.682 87, 164.850 84.937, 164.125 80.818 C 162.889 73.802, 161.789 72.100, 159.643 73.881 C 158.235 75.050, 156.988 79.293, 153.308 95.433 C 151.271 104.371, 149.528 106.087, 148.524 100.143 C 148.156 97.966, 147.243 95.355, 146.495 94.342 C 143.293 90.006, 141.160 97.817, 141.060 114.250 C 140.994 124.922, 139.954 126.453, 136.235 121.348 C 133.726 117.903, 132 119.035, 132 124.126 C 132 126.785, 131.201 129.204, 129.624 131.317 C 126.041 136.116, 124.663 141.474, 125.399 147.740 C 125.753 150.748, 126.539 154.138, 127.146 155.272 C 128.493 157.789, 137.015 168.388, 138.015 168.789 C 138.410 168.948, 139.040 167.598, 139.415 165.789 C 140.060 162.668, 140.168 162.598, 141.535 164.424 C 142.327 165.482, 143.240 167.957, 143.564 169.924 C 144.202 173.794, 147.932 184, 148.708 184 C 148.970 184, 150.377 183.062, 151.835 181.915 L 154.486 179.830 155.093 182.800 C 155.814 186.327, 159.388 191.602, 162.004 193.002 C 164.923 194.564, 169.532 194.175, 171.305 192.216 C 172.192 191.235, 174.080 187.807, 175.499 184.599 C 178.221 178.443, 178.999 178.119, 185.255 180.539 C 186.621 181.067, 187.367 180.367, 188.614 177.382 C 191.051 171.549, 195.780 165.162, 198.797 163.629 C 200.284 162.874, 204.920 162.046, 209.100 161.788 C 217.652 161.261, 219.624 160.195, 224.833 153.285 C 228.875 147.923, 230.360 148.601, 232.013 156.563 C 232.984 161.242, 233.217 181, 232.301 181 C 232.120 181, 231.139 180.479, 230.119 179.842 C 226.928 177.849, 225.307 179.432, 224.664 185.169 C 224.335 188.101, 223.775 192.797, 223.420 195.604 C 223.008 198.859, 223.208 201.520, 223.973 202.949 C 225.084 205.026, 225.001 205.138, 222.836 204.493 C 221.551 204.110, 218.809 202.469, 216.742 200.845 C 214.675 199.221, 212.537 198.168, 211.992 198.505 C 211.446 198.842, 210.976 200.779, 210.947 202.809 C 210.918 204.839, 210.308 209.776, 209.592 213.780 C 208.875 217.784, 208.501 222.172, 208.761 223.530 C 209.170 225.669, 208.867 226, 206.501 226 C 204.590 226, 202.671 224.798, 200.113 222 C 195.200 216.625, 194 216.828, 194 223.032 C 194 225.800, 193.305 229.727, 192.456 231.760 C 191.565 233.892, 190.997 237.815, 191.113 241.032 C 191.272 245.432, 190.774 247.546, 188.755 251.054 C 185.766 256.247, 184.785 260.239, 184.470 268.500 C 184.344 271.800, 183.538 276.342, 182.679 278.594 C 181.820 280.846, 180.603 287.596, 179.974 293.594 C 179.345 299.592, 178.655 305.400, 178.440 306.500 C 178.210 307.676, 175.260 310.214, 171.275 312.663 C 163.783 317.266, 133.639 339.019, 130.528 342.068 C 128.577 343.979, 128.714 344, 143.278 344 C 151.375 344, 158.002 344.337, 158.005 344.750 C 158.007 345.163, 160.220 361.250, 162.922 380.500 C 169.939 430.494, 169.487 425.639, 167.175 426.244 C 164.419 426.965, 160.279 426.041, 158.920 424.403 C 158.292 423.647, 157.041 419.984, 156.139 416.264 C 154.794 410.713, 154.141 409.500, 152.500 409.500 C 151.044 409.500, 150.100 410.656, 149.031 413.750 C 148.096 416.454, 146.958 418, 145.901 418 C 141.676 418, 121.650 398.654, 104.378 377.886 C 98.812 371.193, 91 363.922, 91 365.434 C 91 365.729, 92.287 368.114, 93.859 370.735 C 95.432 373.356, 99.677 381.125, 103.293 388 C 111.715 404.015, 116.866 411.925, 125.259 421.734 C 147.917 448.216, 175.406 460.909, 210.250 460.980 C 218.241 460.996, 220 461.271, 220 462.500 C 220 463.325, 220.338 464.007, 220.750 464.015 C 221.162 464.023, 233.058 464.303, 247.184 464.638 C 275.413 465.307, 286 464.703, 286 462.420 C 286 461.329, 287.612 461, 292.949 461 C 310.652 461, 332.677 456.327, 349.172 449.072 C 373.746 438.263, 394.796 416.709, 403.942 392.993 C 408.799 380.400, 410.324 370.530, 409.725 355.581 C 409.127 340.663, 406.564 330.349, 399.916 316.112 C 396.781 309.395, 396 306.571, 396 301.943 C 396 298.764, 395.727 295.452, 395.393 294.582 C 394.498 292.250, 391.672 292.656, 389 295.500 C 385.604 299.115, 383.465 298.650, 380.542 293.662 C 378.431 290.060, 378 288.053, 378 281.829 C 378 277.706, 377.718 274.051, 377.373 273.707 C 376.620 272.953, 371.671 275.407, 367.406 278.648 C 363.699 281.465, 361.853 281.600, 359.693 279.213 C 356.447 275.626, 354.949 270.281, 355.612 264.643 C 356.042 260.982, 355.868 259.036, 355.064 258.540 C 353.915 257.830, 349.695 260.344, 343.408 265.485 C 340.935 267.507, 339.660 267.882, 337.045 267.359 C 332.709 266.492, 330.693 261.854, 330.474 252.238 C 330.384 248.244, 330.021 244.688, 329.670 244.336 C 329.318 243.985, 326.555 245.340, 323.530 247.348 C 315.698 252.549, 314.986 252.341, 313.767 244.500 C 313.525 242.943, 312.685 242.500, 309.978 242.500 C 306.651 242.500, 306.514 242.358, 306.817 239.224 C 306.992 237.422, 308.455 232.748, 310.067 228.836 C 311.680 224.925, 313 221.063, 313 220.253 C 313 218.752, 312.091 218.783, 303.090 220.589 C 300.026 221.205, 299.757 221.083, 300.437 219.387 C 300.852 218.349, 301.823 213.962, 302.594 209.638 C 303.656 203.676, 304.810 200.654, 307.368 197.138 C 311.478 191.487, 314 186.659, 314 184.441 C 314 182.774, 313.819 182.777, 307.500 184.543 C 305.572 185.082, 305.500 184.622, 305.500 171.801 C 305.500 159.673, 305.762 157.733, 308.469 149.802 C 310.102 145.018, 311.089 140.756, 310.663 140.330 C 310.237 139.904, 307.782 140.313, 305.206 141.240 C 302.631 142.166, 300.196 142.596, 299.796 142.196 C 299.395 141.795, 298.289 138.499, 297.337 134.870 C 295.698 128.620, 295.698 127.896, 297.332 121.124 C 298.611 115.824, 298.782 113.462, 297.994 111.988 C 296.729 109.625, 296.657 109.615, 293.200 111.373 C 286.755 114.651, 286.496 114.566, 281.068 107.397 C 278.281 103.714, 276 99.903, 276 98.928 C 276 96.659, 280.311 91.520, 284.082 89.292 C 285.687 88.344, 287 86.999, 287 86.303 C 287 84.085, 282.518 83.804, 273.080 85.433 C 263.778 87.038, 261.722 86.779, 259.151 83.681 C 257.547 81.749, 258.567 79.518, 261.707 78.088 C 265.128 76.529, 263.659 75.013, 256.719 72.944 L 251.500 71.387 258.500 66.191 C 266.802 60.029, 281.738 52.192, 291.500 48.877 L 298.500 46.500 292.609 46.196 C 288.503 45.984, 283.960 46.682, 277.609 48.500 C 264.168 52.348, 252.168 59.240, 236.664 72.015 C 231.927 75.918, 229 77.040, 229 74.952 C 229 74.376, 227.872 72.859, 226.494 71.582 L 223.987 69.259 229.244 64.068 C 232.135 61.213, 238.687 55.705, 243.805 51.827 C 248.923 47.949, 252.890 44.556, 252.620 44.287 C 251.835 43.502, 242.028 46.972, 235.500 50.344 C 231.443 52.439, 225.997 56.933, 218.682 64.221 C 212.731 70.150, 207.514 75, 207.087 75 C 206.659 75, 205.569 74.182, 204.664 73.181 C 203.125 71.480, 203.210 71.060, 205.988 66.680 C 207.621 64.104, 212.636 58.166, 217.131 53.484 C 221.626 48.801, 225.096 44.762, 224.841 44.508 C 224.587 44.253, 221.516 45.722, 218.017 47.773 M 245.200 80.200 C 243.462 81.938, 243.725 83, 245.893 83 C 247.792 83, 249.384 80.717, 248.264 79.598 C 247.370 78.703, 246.532 78.868, 245.200 80.200 M 221.797 85.208 C 220.773 87.699, 211.562 93.363, 203.500 96.460 C 196.507 99.146, 187.648 104.992, 192.866 103.478 C 195.887 102.602, 208 103.868, 208 105.061 C 208 105.556, 206.875 106.244, 205.500 106.589 C 202.276 107.399, 202.304 108.787, 205.562 109.605 C 208.871 110.435, 215.377 107.529, 218.490 103.830 C 221.078 100.754, 223.313 91.944, 222.815 86.777 C 222.586 84.396, 222.308 83.967, 221.797 85.208 M 244.070 101.731 C 241.084 103.142, 235.763 104.593, 232.247 104.957 C 225.265 105.680, 224.039 106.678, 224.015 111.662 C 224.001 114.588, 224.306 114.876, 228.100 115.517 C 231.830 116.147, 232.531 115.903, 235.850 112.819 C 237.858 110.954, 242.061 107.082, 245.190 104.214 C 248.320 101.346, 250.570 99.038, 250.190 99.083 C 249.811 99.129, 247.057 100.321, 244.070 101.731 M 178.833 105.939 C 178.650 106.455, 174.787 110.920, 170.250 115.860 C 165.713 120.801, 162 125.103, 162 125.422 C 162 126.564, 168.035 125.970, 171.821 124.455 C 174.439 123.407, 176.391 121.649, 177.884 118.993 C 180.333 114.636, 181.943 105, 180.223 105 C 179.642 105, 179.017 105.422, 178.833 105.939 M 249.251 110.253 C 249.469 110.906, 251.303 111.785, 253.328 112.206 C 264.042 114.432, 277.005 125.707, 282.632 137.694 C 293.926 161.754, 294.742 187.222, 285.463 226.011 C 280.841 245.334, 280.440 247.698, 282.574 243.067 C 285.339 237.064, 291.028 214.877, 292.591 204 C 294.318 191.987, 294.572 169.989, 293.073 162.264 C 291.245 152.845, 285.768 137.950, 282.005 132.167 C 277.699 125.550, 270.335 118.439, 263.985 114.766 C 258.354 111.508, 248.682 108.546, 249.251 110.253 M 197.474 112.950 C 198.313 114.573, 199.011 117.836, 199.025 120.200 L 199.050 124.500 203.025 120.289 C 205.211 117.973, 207 115.588, 207 114.990 C 207 113.871, 199.502 110.061, 197.224 110.022 C 196.248 110.005, 196.307 110.692, 197.474 112.950 M 186.655 112.829 C 184.594 115.106, 184.524 117, 186.500 117 C 187.452 117, 188 117.958, 188 119.622 C 188 121.903, 187.793 122.073, 186.415 120.929 C 185.021 119.773, 184.870 119.970, 185.165 122.557 C 185.472 125.251, 185.866 125.526, 189.824 125.811 C 195.836 126.244, 197.371 124.727, 196.602 119.112 C 195.592 111.742, 190.531 108.545, 186.655 112.829 M 236.500 123.114 C 234.850 123.632, 230.125 124.764, 226 125.630 C 221.875 126.496, 215.904 128.576, 212.732 130.251 C 206.739 133.417, 205.598 134.869, 210.611 132.950 C 213.894 131.694, 223.180 131.375, 224.933 132.459 C 226.678 133.537, 224.283 136, 221.488 136 C 220.242 136, 218.290 136.787, 217.151 137.750 L 215.081 139.500 218.472 143.466 L 221.862 147.432 223.077 142.608 C 224.468 137.086, 229.927 130.189, 236.818 125.250 C 241.545 121.862, 241.497 121.545, 236.500 123.114 M 156.633 136.024 C 156.371 136.836, 155.878 139.175, 155.538 141.223 C 154.839 145.433, 152.489 147.332, 149.776 145.880 C 148.473 145.183, 147.987 143.674, 147.952 140.215 L 147.904 135.500 144.904 141.314 C 141.220 148.452, 138.668 148.805, 138.193 142.241 C 137.756 136.227, 136.271 136.986, 135.438 143.648 L 134.732 149.297 132.888 146.898 L 131.044 144.500 131.022 148.128 C 130.996 152.486, 133.460 155.278, 134.484 152.050 C 135.067 150.215, 135.299 150.156, 136.649 151.506 C 138.466 153.323, 140 152.607, 140 149.941 C 140 147.390, 142.686 147.435, 143.500 150 C 144.282 152.465, 145.566 152.558, 146.950 150.250 C 147.931 148.614, 148.116 148.636, 149.787 150.598 C 151.411 152.504, 151.775 152.561, 153.787 151.225 C 155.474 150.106, 156.330 150.029, 157.383 150.903 C 158.492 151.823, 158.876 151.501, 159.322 149.275 C 159.628 147.749, 160.182 145.273, 160.552 143.772 C 161.311 140.696, 157.536 133.232, 156.633 136.024 M 245.674 139.750 C 246.621 141.262, 247.533 142.689, 247.701 142.921 C 248.206 143.612, 253.003 138.740, 252.964 137.576 C 252.944 136.984, 251.900 137.756, 250.643 139.291 L 248.359 142.083 247.201 139.541 C 246.564 138.144, 245.573 137, 244.998 137 C 244.424 137, 244.728 138.238, 245.674 139.750 M 255.036 140.964 C 251.019 144.981, 249.712 149, 252.422 149 C 254.079 149, 261 141.237, 261 139.379 C 261 136.571, 258.860 137.140, 255.036 140.964 M 258.250 147.399 C 254.588 151.145, 253 153.571, 253 155.420 C 253 157.843, 253.193 157.972, 255.250 156.918 C 259.939 154.517, 266 147.681, 266 144.792 C 266 140.726, 264.174 141.340, 258.250 147.399 M 265.714 151.500 C 264.182 153.346, 260.920 155.829, 258.464 157.017 C 254.474 158.949, 254 159.540, 254 162.589 C 254 165.655, 254.282 166, 256.788 166 C 260.595 166, 267.955 162.088, 270.360 158.785 C 272.117 156.374, 272.203 155.620, 271.129 152.035 C 270.464 149.816, 269.600 148.032, 269.210 148.072 C 268.819 148.112, 267.246 149.655, 265.714 151.500 M 179.223 155.862 C 178.385 156.380, 178.616 157.083, 180.021 158.286 C 181.895 159.890, 182 159.878, 182 158.049 C 182 155.753, 180.857 154.852, 179.223 155.862 M 188.457 159.250 C 187.927 161.051, 186.497 162.940, 185.250 163.487 C 183.870 164.092, 183 165.350, 183 166.737 C 183 168.715, 182.490 169, 178.953 169 C 175.505 169, 174.655 169.443, 173.203 171.994 C 171.418 175.131, 169.516 175.867, 168.662 173.750 C 168.368 173.021, 168.125 173.251, 168.079 174.300 C 168.036 175.289, 167.288 177.476, 166.418 179.158 L 164.836 182.217 162.113 179.609 C 158.019 175.686, 157.534 176.462, 160.965 181.449 C 165.110 187.474, 165.716 187.664, 167.676 183.553 C 168.608 181.599, 169.676 180, 170.049 180 C 170.423 180, 172.002 178.161, 173.560 175.914 C 176.183 172.128, 176.682 171.855, 180.335 172.203 C 184.033 172.556, 184.369 172.361, 185.747 169.062 C 186.556 167.128, 188.500 163.680, 190.069 161.400 C 191.638 159.120, 192.639 156.972, 192.294 156.627 C 190.849 155.182, 189.353 156.204, 188.457 159.250 M 171.651 158.755 C 171.216 159.460, 174.320 164, 175.237 164 C 175.466 164, 175.455 162.650, 175.213 161 C 174.809 158.243, 172.764 156.955, 171.651 158.755 M 165 161.378 C 165 162.135, 164.378 163.272, 163.617 163.903 C 162.539 164.797, 162.083 164.660, 161.555 163.282 C 160.942 161.686, 160.698 161.749, 159.058 163.923 L 157.240 166.333 156.548 164.152 C 155.660 161.353, 154.423 162.134, 153.654 165.979 C 152.854 169.980, 151.747 169.789, 149.597 165.282 C 147.618 161.131, 146.681 161.817, 145.720 168.119 L 145.168 171.738 150.584 171.787 C 153.563 171.814, 156 171.392, 156 170.851 C 156 170.309, 156.900 170.151, 158 170.500 C 159.440 170.957, 160 170.680, 160 169.508 C 160 168.614, 160.399 168.129, 160.887 168.430 C 161.374 168.731, 162.329 168.308, 163.009 167.489 C 164.645 165.518, 165.762 165.608, 166.262 167.750 C 166.510 168.808, 166.973 168.043, 167.435 165.815 C 168.206 162.094, 167.668 160, 165.941 160 C 165.423 160, 165 160.620, 165 161.378 M 270.304 162.559 C 266.555 165.493, 259.906 168, 255.874 168 C 253.409 168, 252.998 168.391, 252.986 170.750 C 252.979 172.262, 252.713 174.468, 252.396 175.651 C 251.916 177.439, 252.355 177.919, 255.002 178.500 C 261.372 179.900, 267.087 178.176, 271.841 173.422 C 275.920 169.343, 276.180 168.769, 275.537 165.267 C 274.578 160.048, 273.936 159.717, 270.304 162.559 M 245.629 168.750 C 245.350 169.713, 244.385 174.550, 243.483 179.500 C 240.281 197.080, 230.858 217.922, 217.918 236.047 C 214.113 241.376, 211 246.020, 211 246.368 C 211 246.716, 211.645 247, 212.433 247 C 215.130 247, 228.250 228.491, 234.777 215.479 C 239.911 205.246, 248 176.119, 248 167.869 C 248 166.281, 246.143 166.971, 245.629 168.750 M 272.146 175.868 C 267.486 180.085, 264.695 181, 256.489 181 L 251.227 181 250.553 185.497 C 250.182 187.970, 250.157 190.445, 250.498 190.997 C 250.839 191.549, 254.256 192, 258.091 192 C 269.239 192, 276.343 188.014, 277.444 181.141 C 277.765 179.138, 277.678 176.251, 277.252 174.725 L 276.476 171.949 272.146 175.868 M 272 190.789 C 267.936 193.238, 266.570 193.500, 257.866 193.500 L 248.231 193.500 247.115 198.326 C 246.502 200.981, 246 203.496, 246 203.916 C 246 206.723, 260.591 208.075, 268.171 205.969 C 270.191 205.408, 273.228 203.655, 274.921 202.074 C 277.651 199.524, 278 198.562, 278 193.599 C 278 190.519, 277.663 188.018, 277.250 188.039 C 276.837 188.060, 274.475 189.298, 272 190.789 M 272.579 205.870 C 269.025 208.254, 267.762 208.500, 259.079 208.500 C 253.811 208.500, 248.347 208.135, 246.938 207.689 C 244.783 207.007, 244.198 207.270, 243.250 209.350 C 242.631 210.709, 241.828 213.398, 241.467 215.325 C 240.896 218.368, 241.154 219.055, 243.422 220.541 C 247.250 223.049, 262.555 223.799, 266.655 221.679 C 271.682 219.079, 275.785 213.614, 276.553 208.496 C 276.931 205.972, 277.074 203.757, 276.870 203.574 C 276.667 203.390, 274.736 204.424, 272.579 205.870 M 236.010 223.981 C 234.904 226.148, 234 229.502, 234 231.434 C 234 236.681, 237.762 238.304, 251.096 238.809 C 263.118 239.265, 266.740 238.121, 269.941 232.857 C 271.987 229.493, 274.554 221.221, 273.790 220.457 C 273.523 220.189, 271.165 221.167, 268.550 222.628 C 264.057 225.139, 263.297 225.250, 254.698 224.639 C 248.626 224.208, 244.339 223.336, 241.810 222.018 L 238.019 220.042 236.010 223.981 M 228.124 237.476 C 224.133 243.034, 224.480 246.312, 229.670 252.057 C 233.950 256.794, 237.826 258.129, 247.411 258.166 C 261.923 258.223, 267.290 253.929, 270.429 239.750 C 271.161 236.447, 271.037 236.430, 265.772 239.117 C 262.074 241.003, 260.367 241.187, 250.061 240.805 C 237.753 240.350, 234.819 239.441, 232.719 235.433 L 231.400 232.915 228.124 237.476 M 219.435 249.918 C 217.193 253.307, 217.008 254.152, 218.066 256.168 C 220.510 260.826, 225.140 265.904, 229.691 268.919 C 232.250 270.613, 233.695 272, 232.904 272 C 230.982 272, 224.382 267.568, 219.768 263.180 C 217.716 261.227, 215.816 259.851, 215.545 260.121 C 214.692 260.975, 216.931 267.599, 219.261 271.118 C 222.448 275.927, 230.907 280, 237.711 280 C 244.093 280, 248.371 278.369, 253.268 274.069 C 256.826 270.945, 265 259.056, 265 257.004 C 265 256.430, 263.087 256.947, 260.750 258.155 C 256.140 260.536, 247.661 261.102, 238.622 259.632 C 234.637 258.984, 232.852 257.947, 228.872 253.967 C 226.192 251.288, 224 248.399, 224 247.548 C 224 244.878, 222.128 245.850, 219.435 249.918 M 279.077 250.298 C 276.905 256.009, 271.701 266.816, 269.589 270 C 256.779 289.309, 255.724 291.323, 257.649 292.798 C 260.701 295.138, 271.358 299.998, 273.438 299.999 C 276.846 300.001, 286.307 291.974, 284.742 290.409 C 284.492 290.159, 281.256 291.315, 277.551 292.977 C 269.016 296.806, 267.962 296.811, 274.895 292.990 C 283.098 288.469, 287.065 285.089, 288.665 281.260 C 289.464 279.348, 289.959 277.626, 289.766 277.433 C 289.573 277.240, 287.184 278.174, 284.458 279.510 C 280.911 281.246, 277.934 281.912, 274 281.847 L 268.500 281.756 274.209 280.919 C 280.801 279.953, 287.473 276.853, 288.967 274.062 C 290.398 271.388, 290.263 266.993, 288.750 267.035 C 288.063 267.055, 286.375 267.714, 285 268.500 C 283.625 269.286, 280.475 269.892, 278 269.847 L 273.500 269.765 278.097 268.987 C 280.625 268.559, 284.118 267.473, 285.858 266.573 C 288.579 265.166, 288.931 264.556, 288.370 262.219 C 287.466 258.445, 287.425 258.430, 283.237 260.394 L 279.500 262.146 282.915 259.253 L 286.331 256.361 283.981 252.180 C 281.304 247.417, 280.316 247.038, 279.077 250.298 M 197.586 254.905 C 193.201 259.750, 191.891 272.104, 194.471 284.277 C 195.261 288.004, 196.179 293.854, 196.512 297.277 C 197.386 306.275, 197.865 308, 199.484 308 C 201.909 308, 202.886 304.822, 201.948 299.986 C 201.470 297.519, 200.786 289.875, 200.428 283 C 199.918 273.208, 200.126 269.024, 201.389 263.688 C 202.275 259.941, 203 256.004, 203 254.938 C 203 252.409, 199.862 252.390, 197.586 254.905 M 306.409 265.256 C 306.352 271.127, 305.512 277.784, 304.108 283.500 C 301.575 293.817, 300.400 304.006, 301.437 306.671 C 302.097 308.367, 302.289 308.328, 304.074 306.139 C 305.448 304.455, 306 302.225, 306 298.357 C 306 294.593, 306.993 290.423, 309.250 284.718 C 313.453 274.089, 313.810 264.337, 310.182 259.250 C 308.907 257.462, 307.557 256.003, 307.182 256.006 C 306.807 256.009, 306.459 260.171, 306.409 265.256 M 216 275.663 C 216 276.653, 218.949 280.284, 222.552 283.731 C 229.105 290, 229.277 292.028, 222.890 287.707 C 217.196 283.855, 217 283.779, 217 285.438 C 217 286.294, 218.584 288.747, 220.519 290.889 C 226.538 297.552, 233.589 297.142, 243.962 289.528 C 248.373 286.290, 254.524 279.191, 253.664 278.331 C 253.508 278.175, 250.933 278.989, 247.940 280.140 C 238.276 283.857, 227.946 282.370, 218.956 275.969 C 216.223 274.023, 216 274, 216 275.663 M 318 274.813 C 318 275.261, 321.712 276.689, 326.250 277.986 C 336.098 280.802, 347.935 286.791, 360.035 295.078 C 383.091 310.870, 395.237 333.114, 395.210 359.500 C 395.173 395.280, 371.507 425.513, 332.873 439.136 C 326.618 441.342, 317.675 443.699, 313 444.373 C 305.630 445.437, 304.460 445.877, 304.196 447.682 L 303.892 449.763 312.947 447.906 C 331.109 444.181, 345.300 438.335, 360.100 428.482 C 370.108 421.820, 375.473 416.552, 381.978 407 C 393.803 389.635, 399.391 368.651, 396.977 350.675 C 393.678 326.113, 381.059 306.840, 358.485 291.886 C 346.021 283.629, 340.330 280.742, 329.090 276.977 C 319.703 273.832, 318 273.500, 318 274.813 M 218.042 294.763 C 218.065 295.168, 219.626 297.247, 221.511 299.381 C 224.463 302.723, 225.356 303.179, 227.940 302.662 C 230.832 302.084, 239.550 297.188, 238.844 296.539 C 238.655 296.364, 235.891 296.701, 232.702 297.287 C 227.509 298.241, 226.439 298.126, 222.452 296.189 C 220.003 294.999, 218.019 294.358, 218.042 294.763 M 314 294.249 C 314 294.528, 314.638 296.273, 315.418 298.128 C 316.930 301.723, 320.325 305.219, 326 309.026 C 330.765 312.223, 358.374 333.471, 364.250 338.464 C 366.862 340.684, 368.999 342.837, 369 343.250 C 369 343.663, 363.589 344, 356.975 344 C 345.420 344, 344.918 344.088, 344.112 346.250 C 343.651 347.488, 342.285 356.150, 341.077 365.500 C 339.868 374.850, 337.417 392.073, 335.629 403.773 C 333.841 415.473, 332.593 425.260, 332.856 425.523 C 333.119 425.785, 334.764 426, 336.512 426 C 341.271 426, 343 423.432, 343 416.362 C 343 412.871, 343.571 409.601, 344.373 408.505 C 345.682 406.714, 345.946 406.798, 350.053 410.313 C 352.422 412.341, 355.163 414, 356.145 414 C 357.127 414, 359.546 412.581, 361.521 410.848 L 365.111 407.695 364.438 399.979 C 363.652 390.973, 364.302 390.086, 369.601 392.926 C 374.488 395.545, 376.301 394.484, 378.927 387.467 C 381.634 380.231, 381.544 377.975, 378.318 372.197 C 375.215 366.639, 375.603 363.441, 379.245 364.546 C 380.485 364.923, 381.950 365.291, 382.500 365.365 C 383.994 365.567, 384.324 353.292, 382.993 347 C 381.349 339.226, 374.962 326.507, 369.310 319.751 C 360.304 308.986, 349.373 302.356, 332.763 297.583 C 324.034 295.075, 314 293.292, 314 294.249 M 256 295.541 C 256 295.848, 256.637 297.314, 257.415 298.800 C 259.758 303.272, 265.414 308.031, 269.085 308.618 C 271.943 309.075, 272.956 308.686, 275.296 306.229 L 278.092 303.295 272.376 302.147 C 269.231 301.515, 264.261 299.645, 261.330 297.991 C 258.398 296.336, 256 295.234, 256 295.541 M 250.014 307.250 C 245.360 313.655, 226.425 337.462, 222.623 341.689 C 220.490 344.060, 219.215 346, 219.788 346 C 221.326 346, 242.954 320.315, 249.925 310.209 C 251.742 307.573, 252.475 307.149, 253.598 308.081 C 254.369 308.721, 255 309.624, 255 310.087 C 255 312.290, 274.934 337.976, 279.678 341.886 C 285.555 346.730, 285.414 345.568, 279.359 339.250 C 270.260 329.757, 258.256 314.341, 255.808 309.006 C 254.545 306.253, 253.256 304, 252.944 304 C 252.632 304, 251.313 305.462, 250.014 307.250 M 191.796 309.673 C 190.885 310.680, 189.669 312.740, 189.094 314.252 C 188.125 316.802, 188.232 317, 190.590 317 C 191.988 317, 194.002 317.466, 195.066 318.035 C 196.803 318.965, 197 318.722, 197 315.646 C 197 313.763, 196.202 311.236, 195.227 310.032 C 193.514 307.916, 193.397 307.904, 191.796 309.673 M 202.655 309.829 C 200.666 312.026, 200.529 314.974, 202.303 317.399 C 203.487 319.019, 203.725 319.036, 204.925 317.590 C 205.651 316.716, 206.865 316, 207.622 316 C 209.287 316, 209.330 315.246, 207.902 311.149 C 206.656 307.575, 205.059 307.173, 202.655 309.829 M 305.097 309.383 C 304.226 310.433, 303.998 312.178, 304.432 314.489 C 305.082 317.955, 306.296 318.948, 307.500 317 C 307.840 316.450, 308.991 316, 310.059 316 C 312.729 316, 312.492 314.583, 309.211 310.910 C 306.713 308.115, 306.282 307.955, 305.097 309.383 M 293.557 313.223 C 291.444 316.238, 291.594 317, 294.300 317 C 295.565 317, 297.084 317.484, 297.675 318.075 C 299.099 319.499, 299.187 314.002, 297.767 312.250 C 296.320 310.463, 295.329 310.692, 293.557 313.223 M 252.341 316.445 C 252.703 317.390, 253 322.627, 253 328.082 L 253 338 261.437 338 L 269.874 338 261.836 326.750 C 254.312 316.219, 250.785 312.391, 252.341 316.445 M 241.776 327.006 L 234.052 337.500 241.179 337.797 C 245.099 337.960, 248.704 337.696, 249.191 337.209 C 249.678 336.722, 249.947 331.866, 249.788 326.418 L 249.500 316.512 241.776 327.006 M 182.250 340.742 C 185.963 340.934, 192.037 340.934, 195.750 340.742 C 199.463 340.549, 196.425 340.392, 189 340.392 C 181.575 340.392, 178.537 340.549, 182.250 340.742 M 336.813 340.683 C 337.534 340.972, 338.397 340.936, 338.729 340.604 C 339.061 340.272, 338.471 340.036, 337.417 340.079 C 336.252 340.127, 336.015 340.364, 336.813 340.683 M 204.250 341.689 C 205.213 341.941, 206.787 341.941, 207.750 341.689 C 208.713 341.438, 207.925 341.232, 206 341.232 C 204.075 341.232, 203.287 341.438, 204.250 341.689 M 229.687 343.805 C 228.209 345.347, 227 346.922, 227 347.305 C 227 348.155, 244.616 348.210, 247.750 347.370 C 249.424 346.921, 250 346.028, 250 343.883 L 250 341 241.187 341 C 232.837 341, 232.233 341.147, 229.687 343.805 M 252.630 343.250 C 252.299 344.488, 252.021 345.837, 252.014 346.250 C 252.006 346.663, 257.625 347, 264.500 347 C 271.375 347, 277 346.628, 277 346.174 C 277 345.720, 275.958 344.370, 274.686 343.174 C 272.642 341.255, 271.251 341, 262.802 341 C 253.724 341, 253.202 341.115, 252.630 343.250 M 298.750 341.744 C 303.288 341.929, 310.712 341.929, 315.250 341.744 C 319.788 341.559, 316.075 341.407, 307 341.407 C 297.925 341.407, 294.212 341.559, 298.750 341.744 M 246.887 359.599 C 238.873 366.305, 235.218 370.749, 231.506 378.301 C 226.879 387.717, 226.176 393.895, 225.659 429.750 L 225.207 461 253.672 461 L 282.137 461 281.775 425.750 C 281.434 392.664, 281.278 390.101, 279.223 384 C 276.560 376.094, 271.429 369.153, 263.477 362.699 C 253.206 354.363, 253.155 354.354, 246.887 359.599 M 178.393 359.582 C 178.727 360.452, 179 363.377, 179 366.082 L 179 371 184 371 L 189 371 189 365.107 C 189 358.504, 188.490 358, 181.811 358 C 178.552 358, 177.901 358.301, 178.393 359.582 M 316 358.891 C 313.757 359.511, 313.469 360.169, 313.200 365.291 L 312.900 371 317.891 371 C 320.636 371, 323.077 370.663, 323.316 370.250 C 323.555 369.837, 324.064 366.913, 324.447 363.750 L 325.144 358 321.822 358.100 C 319.995 358.155, 317.375 358.510, 316 358.891 M 192.011 361.750 C 192.017 362.712, 192.301 365.188, 192.642 367.250 L 193.262 371 198.631 371 L 204 371 204 366.547 C 204 362.253, 203.866 362.057, 200.250 361.053 C 194.620 359.489, 191.998 359.711, 192.011 361.750 M 305 360.666 C 297.849 361.792, 297.867 361.778, 298.194 366.283 L 298.500 370.500 303.621 370.798 C 308.239 371.066, 308.802 370.870, 309.357 368.798 C 310.429 364.798, 310.092 359.990, 308.750 360.136 C 308.063 360.211, 306.375 360.450, 305 360.666 M 246.119 367.885 C 235.683 377.940, 231 391.264, 231 410.906 C 231 414.624, 231.302 417.968, 231.670 418.337 C 232.039 418.705, 233.365 418.336, 234.618 417.515 C 236.860 416.045, 240 416.380, 240 418.088 C 240 418.569, 238.875 419.244, 237.500 419.589 C 234.414 420.364, 234.338 421.423, 237.223 423.443 C 239.425 424.986, 239.426 425, 237.345 425 C 236.190 425, 234.685 424.325, 234 423.500 C 233.315 422.675, 232.349 422, 231.853 422 C 231.343 422, 231.071 429.264, 231.226 438.750 L 231.500 455.500 251.500 455.783 C 262.500 455.939, 272.545 455.810, 273.822 455.496 L 276.145 454.926 275.793 422.213 C 275.459 391.217, 275.324 389.211, 273.227 384 C 272.010 380.975, 269.320 376.270, 267.249 373.545 C 263.295 368.342, 255.763 362, 253.536 362 C 252.817 362, 249.479 364.648, 246.119 367.885 M 180.200 378.750 L 180.500 384.500 184.750 384.807 L 189 385.115 189 379.057 L 189 373 184.450 373 L 179.900 373 180.200 378.750 M 193 378.981 C 193 384.446, 193.205 385.013, 195.379 385.559 C 196.688 385.887, 199.050 386.009, 200.629 385.828 C 203.412 385.510, 203.509 385.308, 203.798 379.250 L 204.095 373 198.548 373 L 193 373 193 378.981 M 298.357 374.512 C 298.038 375.344, 298.079 378.044, 298.450 380.512 L 299.123 385 304.061 385 L 309 385 309 379 L 309 373 303.969 373 C 300.401 373, 298.768 373.440, 298.357 374.512 M 313 379.500 L 313 386 317.369 386 C 321.641 386, 321.752 385.917, 322.358 382.250 C 322.699 380.188, 322.983 377.262, 322.989 375.750 C 323 373.115, 322.791 373, 318 373 L 313 373 313 379.500 M 181 390.315 C 181 392.204, 181.281 395.156, 181.625 396.875 C 182.179 399.645, 182.639 400, 185.673 400 L 189.095 400 188.798 393.750 L 188.500 387.500 184.750 387.190 C 181.084 386.886, 181 386.956, 181 390.315 M 299 393.500 L 299 400 304 400 L 309 400 309 394.107 C 309 387.613, 308.432 387, 302.418 387 L 299 387 299 393.500 M 193 394 L 193 400 198.500 400 L 204 400 204 394 L 204 388 198.500 388 L 193 388 193 394 M 312 394 L 312 400 315.893 400 C 320.352 400, 321 399.038, 321 392.418 L 321 388 316.500 388 L 312 388 312 394 M 182.740 402.750 C 182.531 403.163, 182.548 405.863, 182.777 408.750 L 183.193 414 186.713 414 C 189.876 414, 190.172 413.771, 189.630 411.750 C 189.299 410.512, 189.021 407.813, 189.014 405.750 C 189.001 402.270, 188.788 402, 186.059 402 C 184.441 402, 182.948 402.337, 182.740 402.750 M 193 403.308 C 193 404.085, 192.710 406.833, 192.357 409.415 L 191.713 414.108 197.607 413.804 L 203.500 413.500 203.500 408 L 203.500 402.500 198.250 402.198 C 194.252 401.968, 193 402.232, 193 403.308 M 302.750 402.804 L 298 403.110 298 408.555 L 298 414 303.500 414 L 309 414 309 408.559 C 309 405.566, 308.663 402.979, 308.250 402.808 C 307.837 402.638, 305.363 402.636, 302.750 402.804 M 312 407.940 L 312 414 315.500 414 C 318.959 414, 319.002 413.948, 319.150 409.500 C 319.233 407.025, 319.345 404.438, 319.400 403.750 C 319.460 403.004, 317.989 402.375, 315.750 402.190 L 312 401.879 312 407.940 M 132.500 420.570 C 142.753 430.329, 154.623 437.790, 168.181 442.999 C 175.043 445.636, 188.089 449, 191.452 449 C 193.719 449, 193.933 448.744, 193.048 447.090 C 192.403 445.884, 190.455 444.936, 187.763 444.517 C 167.397 441.347, 149.143 433.256, 133 420.244 L 127.500 415.811 132.500 420.570" stroke="none" fill="black" fill-rule="evenodd"/>
</svg>